<svg width="81" height="80" viewBox="0 0 81 80" fill="none" xmlns="http://www.w3.org/2000/svg">
<mask id="mask0_66_1357" style="mask-type:alpha" maskUnits="userSpaceOnUse" x="9" y="11" width="61" height="59">
<path d="M51.0849 11.3412L60.3454 21.1071L69.6495 30.8334L67.7642 43.8612L65.9385 56.8983L54.327 63.3777L42.7462 69.9084L30.1523 64.9603L17.5371 60.0669L13.4442 47.4173L9.29394 34.7846L16.7841 23.9589L24.2241 13.0996L37.6571 12.2498L51.0849 11.3412Z" fill="#C4C4C4"/>
</mask>
<g mask="url(#mask0_66_1357)">
<path d="M16.7063 11.8717C19.3563 4.89035 27.0326 1.32921 33.8517 3.91768L66.7774 16.4159C73.5965 19.0044 76.9762 26.7623 74.3261 33.7437L61.5305 67.4526C58.8805 74.434 51.2042 77.9951 44.3851 75.4067L11.4594 62.9084C4.6403 60.3199 1.2606 52.5621 3.91066 45.5807L16.7063 11.8717Z" fill="url(#paint0_linear_66_1357)"/>
<path d="M65.8017 16.2795L34.2635 4.30787C26.7986 1.47427 18.454 5.21829 15.6252 12.6704L3.67418 44.1544L65.8017 16.2795Z" fill="url(#paint1_linear_66_1357)"/>
<path d="M13.6261 62.3862L44.6902 74.1778C52.3151 77.0722 60.8387 73.2479 63.7281 65.636L75.9355 33.4767L13.6261 62.3862Z" fill="url(#paint2_linear_66_1357)"/>
</g>
<path d="M44.5443 23.6395C35.7853 21.6069 27.0662 26.9543 25.0697 35.5831C24.2523 39.1157 25.42 42.7892 25.1922 46.4086C25.0981 47.904 24.891 49.3633 24.6762 50.526C24.5253 51.3425 24.8786 52.1799 25.6594 52.4663C29.2805 53.7942 37.0515 54.8934 40.9281 55.3179C49.4637 55.8774 55.0684 50.3792 56.7888 42.9437C58.7853 34.3148 53.3033 25.6721 44.5443 23.6395Z" fill="white"/>
<g filter="url(#filter0_f_66_1357)">
<ellipse cx="40.8536" cy="71.2621" rx="12.9718" ry="0.995269" fill="#120A38" fill-opacity="0.37"/>
</g>
<defs>
<filter id="filter0_f_66_1357" x="26.3818" y="68.7668" width="28.9435" height="4.99054" filterUnits="userSpaceOnUse" color-interpolation-filters="sRGB">
<feFlood flood-opacity="0" result="BackgroundImageFix"/>
<feBlend mode="normal" in="SourceGraphic" in2="BackgroundImageFix" result="shape"/>
<feGaussianBlur stdDeviation="0.75" result="effect1_foregroundBlur_66_1357"/>
</filter>
<linearGradient id="paint0_linear_66_1357" x1="50.3146" y1="10.1668" x2="27.9222" y2="69.1575" gradientUnits="userSpaceOnUse">
<stop stop-color="#8054E5"/>
<stop offset="1" stop-color="#7140E1"/>
</linearGradient>
<linearGradient id="paint1_linear_66_1357" x1="43.2744" y1="7.72833" x2="8.51092" y2="44.4511" gradientUnits="userSpaceOnUse">
<stop stop-color="#AE90F8"/>
<stop offset="1" stop-color="#A17EF6"/>
</linearGradient>
<linearGradient id="paint2_linear_66_1357" x1="36.0613" y1="70.9024" x2="71.679" y2="34.3649" gradientUnits="userSpaceOnUse">
<stop stop-color="#315A92"/>
<stop offset="1" stop-color="#3160A1"/>
</linearGradient>
</defs>
</svg>
